<mxfile host="65bd71144e">
    <diagram name="ActivityDiagram" id="f8QydowQ5FHm2gYaLpDF">
        <mxGraphModel dx="1004" dy="744" grid="1" gridSize="10" guides="1" tooltips="1" connect="1" arrows="1" fold="1" page="1" pageScale="1" pageWidth="850" pageHeight="1100" math="0" shadow="0">
            <root>
                <mxCell id="0"/>
                <mxCell id="1" parent="0"/>
                <mxCell id="r4LHZnhp1F16UHlgJ4Qr-16" style="edgeStyle=orthogonalEdgeStyle;rounded=0;orthogonalLoop=1;jettySize=auto;html=1;" parent="1" source="r4LHZnhp1F16UHlgJ4Qr-9" target="r4LHZnhp1F16UHlgJ4Qr-14" edge="1">
                    <mxGeometry relative="1" as="geometry"/>
                </mxCell>
                <mxCell id="r4LHZnhp1F16UHlgJ4Qr-9" value="push &quot;Record&quot; button" style="rounded=1;whiteSpace=wrap;html=1;arcSize=40;fontColor=#000000;fillColor=#ffffc0;strokeColor=#ff0000;" parent="1" vertex="1">
                    <mxGeometry x="35" y="120" width="145" height="40" as="geometry"/>
                </mxCell>
                <mxCell id="r4LHZnhp1F16UHlgJ4Qr-13" style="edgeStyle=orthogonalEdgeStyle;rounded=0;orthogonalLoop=1;jettySize=auto;html=1;" parent="1" source="r4LHZnhp1F16UHlgJ4Qr-11" target="r4LHZnhp1F16UHlgJ4Qr-9" edge="1">
                    <mxGeometry relative="1" as="geometry"/>
                </mxCell>
                <mxCell id="r4LHZnhp1F16UHlgJ4Qr-11" value="" style="ellipse;html=1;shape=startState;fillColor=#000000;strokeColor=#ff0000;" parent="1" vertex="1">
                    <mxGeometry x="92.5" y="40" width="30" height="30" as="geometry"/>
                </mxCell>
                <mxCell id="r4LHZnhp1F16UHlgJ4Qr-14" value="Start grabbing speech frames" style="rounded=1;whiteSpace=wrap;html=1;arcSize=40;fontColor=#000000;fillColor=#ffffc0;strokeColor=#ff0000;" parent="1" vertex="1">
                    <mxGeometry x="250" y="120" width="160" height="40" as="geometry"/>
                </mxCell>
                <mxCell id="4" style="edgeStyle=none;html=1;exitX=0.5;exitY=1;exitDx=0;exitDy=0;" edge="1" parent="1" source="r4LHZnhp1F16UHlgJ4Qr-15" target="2">
                    <mxGeometry relative="1" as="geometry"/>
                </mxCell>
                <mxCell id="r4LHZnhp1F16UHlgJ4Qr-15" value="Calculate embeddings of speech recieved" style="rounded=1;whiteSpace=wrap;html=1;arcSize=40;fontColor=#000000;fillColor=#ffffc0;strokeColor=#ff0000;" parent="1" vertex="1">
                    <mxGeometry x="520.83" y="120" width="145" height="40" as="geometry"/>
                </mxCell>
                <mxCell id="r4LHZnhp1F16UHlgJ4Qr-26" style="edgeStyle=orthogonalEdgeStyle;rounded=0;orthogonalLoop=1;jettySize=auto;html=1;" parent="1" source="r4LHZnhp1F16UHlgJ4Qr-17" target="r4LHZnhp1F16UHlgJ4Qr-25" edge="1">
                    <mxGeometry relative="1" as="geometry"/>
                </mxCell>
                <mxCell id="r4LHZnhp1F16UHlgJ4Qr-17" value="" style="html=1;points=[];perimeter=orthogonalPerimeter;fillColor=strokeColor;direction=south;" parent="1" vertex="1">
                    <mxGeometry x="282.5" y="270" width="105.5" height="10" as="geometry"/>
                </mxCell>
                <mxCell id="r4LHZnhp1F16UHlgJ4Qr-22" value="push &quot;Record&quot; button 2nd time" style="rounded=1;whiteSpace=wrap;html=1;arcSize=40;fontColor=#000000;fillColor=#ffffc0;strokeColor=#ff0000;" parent="1" vertex="1">
                    <mxGeometry x="35" y="200" width="145" height="40" as="geometry"/>
                </mxCell>
                <mxCell id="r4LHZnhp1F16UHlgJ4Qr-23" style="edgeStyle=orthogonalEdgeStyle;rounded=0;orthogonalLoop=1;jettySize=auto;html=1;exitX=1;exitY=0.5;exitDx=0;exitDy=0;entryX=-0.156;entryY=0.753;entryDx=0;entryDy=0;entryPerimeter=0;" parent="1" source="r4LHZnhp1F16UHlgJ4Qr-22" target="r4LHZnhp1F16UHlgJ4Qr-17" edge="1">
                    <mxGeometry relative="1" as="geometry"/>
                </mxCell>
                <mxCell id="r4LHZnhp1F16UHlgJ4Qr-24" style="edgeStyle=orthogonalEdgeStyle;rounded=0;orthogonalLoop=1;jettySize=auto;html=1;exitX=0.75;exitY=1;exitDx=0;exitDy=0;entryX=0.067;entryY=0.171;entryDx=0;entryDy=0;entryPerimeter=0;" parent="1" source="r4LHZnhp1F16UHlgJ4Qr-14" target="r4LHZnhp1F16UHlgJ4Qr-17" edge="1">
                    <mxGeometry relative="1" as="geometry"/>
                </mxCell>
                <mxCell id="r4LHZnhp1F16UHlgJ4Qr-28" style="edgeStyle=orthogonalEdgeStyle;rounded=0;orthogonalLoop=1;jettySize=auto;html=1;exitX=0.5;exitY=1;exitDx=0;exitDy=0;entryX=0.5;entryY=0;entryDx=0;entryDy=0;" parent="1" source="r4LHZnhp1F16UHlgJ4Qr-25" target="r4LHZnhp1F16UHlgJ4Qr-27" edge="1">
                    <mxGeometry relative="1" as="geometry"/>
                </mxCell>
                <mxCell id="r4LHZnhp1F16UHlgJ4Qr-25" value="Stop grabbing speech frames" style="rounded=1;whiteSpace=wrap;html=1;arcSize=40;fontColor=#000000;fillColor=#ffffc0;strokeColor=#ff0000;" parent="1" vertex="1">
                    <mxGeometry x="262.75" y="320" width="145" height="40" as="geometry"/>
                </mxCell>
                <mxCell id="r4LHZnhp1F16UHlgJ4Qr-29" style="edgeStyle=orthogonalEdgeStyle;rounded=0;orthogonalLoop=1;jettySize=auto;html=1;exitX=1;exitY=0.5;exitDx=0;exitDy=0;entryX=0;entryY=0.5;entryDx=0;entryDy=0;" parent="1" source="r4LHZnhp1F16UHlgJ4Qr-27" target="r4LHZnhp1F16UHlgJ4Qr-15" edge="1">
                    <mxGeometry relative="1" as="geometry">
                        <Array as="points">
                            <mxPoint x="430" y="420"/>
                            <mxPoint x="430" y="140"/>
                        </Array>
                    </mxGeometry>
                </mxCell>
                <mxCell id="r4LHZnhp1F16UHlgJ4Qr-27" value="Send speech as audio file to server" style="rounded=1;whiteSpace=wrap;html=1;arcSize=40;fontColor=#000000;fillColor=#ffffc0;strokeColor=#ff0000;" parent="1" vertex="1">
                    <mxGeometry x="262.75" y="400" width="145" height="40" as="geometry"/>
                </mxCell>
                <mxCell id="6" style="edgeStyle=none;html=1;exitX=0.5;exitY=1;exitDx=0;exitDy=0;entryX=0.5;entryY=0;entryDx=0;entryDy=0;" edge="1" parent="1" source="2" target="5">
                    <mxGeometry relative="1" as="geometry"/>
                </mxCell>
                <mxCell id="2" value="Query for speaker&#39;s embeddings by speakerID" style="rounded=1;whiteSpace=wrap;html=1;arcSize=40;fontColor=#000000;fillColor=#ffffc0;strokeColor=#ff0000;" vertex="1" parent="1">
                    <mxGeometry x="520.83" y="200" width="145" height="40" as="geometry"/>
                </mxCell>
                <mxCell id="3" value="" style="ellipse;html=1;shape=endState;fillColor=#000000;strokeColor=#ff0000;" vertex="1" parent="1">
                    <mxGeometry x="315" y="670" width="30" height="30" as="geometry"/>
                </mxCell>
                <mxCell id="9" style="edgeStyle=none;html=1;exitX=0.5;exitY=1;exitDx=0;exitDy=0;" edge="1" parent="1" source="5" target="8">
                    <mxGeometry relative="1" as="geometry"/>
                </mxCell>
                <mxCell id="5" value="Calculate cosine similarity" style="rounded=1;whiteSpace=wrap;html=1;arcSize=40;fontColor=#000000;fillColor=#ffffc0;strokeColor=#ff0000;" vertex="1" parent="1">
                    <mxGeometry x="520.83" y="320" width="145" height="40" as="geometry"/>
                </mxCell>
                <mxCell id="16" style="edgeStyle=none;html=1;exitX=0.5;exitY=1;exitDx=0;exitDy=0;entryX=0.5;entryY=0;entryDx=0;entryDy=0;" edge="1" parent="1" source="7" target="3">
                    <mxGeometry relative="1" as="geometry"/>
                </mxCell>
                <mxCell id="7" value="" style="rhombus;" vertex="1" parent="1">
                    <mxGeometry x="315" y="600" width="30" height="30" as="geometry"/>
                </mxCell>
                <mxCell id="12" style="edgeStyle=none;html=1;exitX=0;exitY=0.5;exitDx=0;exitDy=0;entryX=0.5;entryY=0;entryDx=0;entryDy=0;" edge="1" parent="1" source="8" target="10">
                    <mxGeometry relative="1" as="geometry">
                        <Array as="points">
                            <mxPoint x="522" y="460"/>
                            <mxPoint x="295" y="460"/>
                        </Array>
                    </mxGeometry>
                </mxCell>
                <mxCell id="17" value="Yes" style="edgeLabel;html=1;align=center;verticalAlign=middle;resizable=0;points=[];" vertex="1" connectable="0" parent="12">
                    <mxGeometry x="-0.9139" y="-2" relative="1" as="geometry">
                        <mxPoint as="offset"/>
                    </mxGeometry>
                </mxCell>
                <mxCell id="13" style="edgeStyle=none;html=1;exitX=0.5;exitY=1;exitDx=0;exitDy=0;entryX=1;entryY=0.5;entryDx=0;entryDy=0;" edge="1" parent="1" source="8" target="11">
                    <mxGeometry relative="1" as="geometry">
                        <Array as="points">
                            <mxPoint x="593" y="510"/>
                        </Array>
                    </mxGeometry>
                </mxCell>
                <mxCell id="18" value="No" style="edgeLabel;html=1;align=center;verticalAlign=middle;resizable=0;points=[];" vertex="1" connectable="0" parent="13">
                    <mxGeometry x="-0.8233" relative="1" as="geometry">
                        <mxPoint as="offset"/>
                    </mxGeometry>
                </mxCell>
                <mxCell id="8" value="Score &gt; threshold" style="rhombus;" vertex="1" parent="1">
                    <mxGeometry x="522.08" y="410" width="142.5" height="30" as="geometry"/>
                </mxCell>
                <mxCell id="14" style="edgeStyle=none;html=1;exitX=0.5;exitY=1;exitDx=0;exitDy=0;entryX=0;entryY=0;entryDx=0;entryDy=0;" edge="1" parent="1" source="10" target="7">
                    <mxGeometry relative="1" as="geometry">
                        <Array as="points">
                            <mxPoint x="295" y="607"/>
                        </Array>
                    </mxGeometry>
                </mxCell>
                <mxCell id="10" value="prompt accept" style="rounded=1;whiteSpace=wrap;html=1;arcSize=40;fontColor=#000000;fillColor=#ffffc0;strokeColor=#ff0000;" vertex="1" parent="1">
                    <mxGeometry x="260" y="490" width="70" height="40" as="geometry"/>
                </mxCell>
                <mxCell id="15" style="edgeStyle=none;html=1;exitX=0.5;exitY=1;exitDx=0;exitDy=0;entryX=1;entryY=0;entryDx=0;entryDy=0;" edge="1" parent="1" source="11" target="7">
                    <mxGeometry relative="1" as="geometry">
                        <Array as="points">
                            <mxPoint x="380" y="608"/>
                        </Array>
                    </mxGeometry>
                </mxCell>
                <mxCell id="11" value="prompt reject" style="rounded=1;whiteSpace=wrap;html=1;arcSize=40;fontColor=#000000;fillColor=#ffffc0;strokeColor=#ff0000;" vertex="1" parent="1">
                    <mxGeometry x="350" y="490" width="60" height="40" as="geometry"/>
                </mxCell>
                <mxCell id="19" value="" style="rounded=0;whiteSpace=wrap;html=1;fillColor=none;" vertex="1" parent="1">
                    <mxGeometry x="20" width="200" height="720" as="geometry"/>
                </mxCell>
                <mxCell id="20" value="" style="rounded=0;whiteSpace=wrap;html=1;fillColor=none;" vertex="1" parent="1">
                    <mxGeometry x="220" width="260" height="720" as="geometry"/>
                </mxCell>
                <mxCell id="21" value="" style="rounded=0;whiteSpace=wrap;html=1;fillColor=none;" vertex="1" parent="1">
                    <mxGeometry x="480" width="260" height="720" as="geometry"/>
                </mxCell>
                <mxCell id="22" value="" style="rounded=0;whiteSpace=wrap;html=1;fillColor=none;" vertex="1" parent="1">
                    <mxGeometry x="20" width="720" height="40" as="geometry"/>
                </mxCell>
                <mxCell id="23" value="User" style="text;html=1;align=center;verticalAlign=middle;whiteSpace=wrap;rounded=0;" vertex="1" parent="1">
                    <mxGeometry x="77.5" y="5" width="60" height="30" as="geometry"/>
                </mxCell>
                <mxCell id="24" value="Client" style="text;html=1;align=center;verticalAlign=middle;whiteSpace=wrap;rounded=0;" vertex="1" parent="1">
                    <mxGeometry x="320" y="5" width="60" height="30" as="geometry"/>
                </mxCell>
                <mxCell id="25" value="Server" style="text;html=1;align=center;verticalAlign=middle;whiteSpace=wrap;rounded=0;" vertex="1" parent="1">
                    <mxGeometry x="580" y="5" width="60" height="30" as="geometry"/>
                </mxCell>
            </root>
        </mxGraphModel>
    </diagram>
</mxfile>